<svg width="40" height="41" viewBox="0 0 40 41" fill="none" xmlns="http://www.w3.org/2000/svg">
<g clip-path="url(#clip0_31_6299)">
<rect y="0.5" width="40" height="40" rx="12" fill="white"/>
<path d="M0.556935 26.32C0.23579 22.4745 0.122396 18.3747 0.225923 14.601C0.348116 10.1469 3.60896 6.58254 8.05134 6.23704C9.00432 6.16293 9.97116 6.11198 10.9029 6.09725C12.9546 6.06483 15.182 6.20262 17.0582 6.38771" stroke="#454545" stroke-width="2" stroke-linecap="round" stroke-linejoin="round"/>
<path d="M6.2811 15.2822C5.79183 20.469 5.774 26.8809 6.22759 32.6112C6.42336 35.0844 8.5313 36.92 11.0123 36.92H23.0963C25.5772 36.92 27.6852 35.0844 27.881 32.6112C28.3345 26.8809 28.3167 20.469 27.8274 15.2822C27.6402 13.2978 26.1643 11.7318 24.1872 11.479C22.121 11.2149 19.4704 10.9805 17.0543 10.9805C14.6381 10.9805 11.9875 11.2149 9.92131 11.4791C7.94419 11.7318 6.46828 13.2978 6.2811 15.2822Z" stroke="#454545" stroke-width="2" stroke-linecap="round" stroke-linejoin="round"/>
</g>
<defs>
<clipPath id="clip0_31_6299">
<rect y="0.5" width="40" height="40" rx="12" fill="white"/>
</clipPath>
</defs>
</svg>
