<svg width="45" height="48" viewBox="0 0 45 48" fill="none" xmlns="http://www.w3.org/2000/svg">
<path fill-rule="evenodd" clip-rule="evenodd" d="M24.7706 39.4942C25.0068 41.3173 26.6624 42.635 28.5172 42.635L29.3051 42.6345C29.9496 42.6345 30.5436 42.8428 31.0275 43.1921C28.4724 43.9693 25.5872 44.3708 22.387 44.3708C8.05958 44.3708 0 36.3838 0 22.1854C0 7.98699 8.05905 0 22.387 0C36.715 0 44.7746 7.98699 44.7746 22.1859C44.7746 27.4191 43.6764 31.8048 41.5765 35.2614C40.3954 34.8857 39.5397 33.7892 39.5397 32.4937V31.5862C39.5397 29.435 37.6343 27.7157 35.4087 27.9994C33.569 28.2335 32.2393 29.8742 32.2393 31.7123V32.4931C32.2393 34.0987 30.9258 35.4004 29.3057 35.4004H28.39C26.2192 35.4004 24.4843 37.2887 24.7706 39.4942ZM14.742 24.3625C14.742 25.1226 15.3636 25.7386 16.1306 25.7386C20.1526 25.7386 22.1717 28.0867 25.2273 31.6402L25.2284 31.6415C25.5548 32.0214 25.8896 32.4105 26.2364 32.8079C26.5112 33.1226 26.8981 33.2838 27.2871 33.2838C27.6094 33.2838 27.9327 33.1737 28.1955 32.9484C28.7753 32.4518 28.8384 31.5826 28.3368 31.0075C27.9952 30.6163 27.6646 30.2318 27.3429 29.8572C25.7603 28.0165 24.2856 26.3014 22.5455 25.0446C24.5547 24.3759 26.2093 23.0613 26.6358 20.478H29.5377C30.3048 20.478 30.9263 19.8621 30.9263 19.1019C30.9263 18.3418 30.3048 17.7258 29.5377 17.7258H26.6363C26.4752 16.7378 26.1347 15.9368 25.6623 15.2893H29.6086C30.3757 15.2893 30.9972 14.6733 30.9972 13.9132C30.9972 13.153 30.3757 12.537 29.6086 12.537H16.0988C15.3318 12.537 14.7102 13.153 14.7102 13.9132C14.7102 14.6733 15.3318 15.2893 16.0988 15.2893C21.268 15.2893 23.2678 15.8257 23.8043 17.7258H16.1885C15.4214 17.7258 14.7999 18.3418 14.7999 19.1019C14.7999 19.8621 15.4214 20.478 16.1885 20.478H23.7944C23.2286 22.39 21.158 22.9864 16.1306 22.9864C15.3636 22.9864 14.742 23.6023 14.742 24.3625ZM39.9914 37.4678H43.3892C44.2532 37.4678 44.9541 38.1618 44.9541 39.0181C44.9541 39.8744 44.2538 40.5684 43.3897 40.5684H37.4545V46.4501C37.4545 47.3064 36.7542 48.0004 35.8902 48.0004C35.0261 48.0004 34.3258 47.3064 34.3258 46.4501V41.8861V40.5684H28.3906C27.5266 40.5684 26.8263 39.8744 26.8263 39.0181C26.8263 38.1618 27.5266 37.4678 28.3906 37.4678H34.3253V31.5861C34.3253 30.7298 35.0256 30.0358 35.8897 30.0358C36.7537 30.0358 37.454 30.7298 37.454 31.5861V37.4678H39.9914Z" fill="#253851"/>
</svg>
