<svg width="28" height="32" viewBox="0 0 28 32" fill="none" xmlns="http://www.w3.org/2000/svg">
<path d="M28 26H0V30.2857C0 31.2329 0.6265 32 1.4 32H26.6C27.3735 32 28 31.2329 28 30.2857V26Z" fill="#C48C00"/>
<path d="M5 9.75V12H7.76923V9.75C7.76923 6.02175 10.5585 3 14 3C17.4415 3 20.2308 6.02175 20.2308 9.75V12H23V9.75C23 4.365 18.9708 0 14 0C9.02923 0 5 4.365 5 9.75Z" fill="url(#paint0_linear_124_9348)"/>
<path d="M28 17H0V13.4286C0 12.6393 0.6265 12 1.4 12H26.6C27.3735 12 28 12.6393 28 13.4286V17Z" fill="#FAD500"/>
<path d="M28 17H0V22H28V17Z" fill="#EDBE00"/>
<path d="M28 22H0V26H28V22Z" fill="#E3A600"/>
<path d="M16 21.1C16 19.9401 15.1047 19 14 19C12.8953 19 12 19.9401 12 21.1C12 22.0128 12.558 22.7821 13.3333 23.0712V25.3C13.3333 25.6864 13.632 26 14 26C14.368 26 14.6667 25.6864 14.6667 25.3V23.0712C15.442 22.7821 16 22.0128 16 21.1Z" fill="url(#paint1_linear_124_9348)"/>
<defs>
<linearGradient id="paint0_linear_124_9348" x1="14" y1="11.7353" x2="14" y2="-0.222" gradientUnits="userSpaceOnUse">
<stop stop-color="#92A3B0"/>
<stop offset="0.015" stop-color="#A3B5C4"/>
<stop offset="0.032" stop-color="#AEC2D1"/>
<stop offset="0.046" stop-color="#B2C6D6"/>
</linearGradient>
<linearGradient id="paint1_linear_124_9348" x1="14" y1="25.5611" x2="14" y2="19.8085" gradientUnits="userSpaceOnUse">
<stop stop-color="#4B4B4B"/>
<stop offset="1" stop-color="#3B3B3B"/>
</linearGradient>
</defs>
</svg>
