<svg width="91" height="91" viewBox="0 0 91 91" fill="none" xmlns="http://www.w3.org/2000/svg">
<g filter="url(#filter0_b_124_9472)">
<path d="M45.5 0C20.3 0 0 20.3 0 45.5C0 70.7 20.3 91 45.5 91C70.7 91 91 70.7 91 45.5C91 20.3 70.7 0 45.5 0ZM66.3 48.8L36 66.5C35.4 66.9 34.7 67 34.1 67C33.5 67 32.8 66.9 32.2 66.5C31.1 65.9 30.3 64.6 30.3 63.2V27.8C30.3 26.4 31.1 25.1 32.2 24.5C33.3 23.9 34.9 23.9 36 24.5L66.4 42.2C67.5 42.8 68.2 44.1 68.2 45.5C68.2 46.9 67.4 48.2 66.3 48.8Z" fill="white" fill-opacity="0.63"/>
</g>
<defs>
<filter id="filter0_b_124_9472" x="-4" y="-4" width="99" height="99" filterUnits="userSpaceOnUse" color-interpolation-filters="sRGB">
<feFlood flood-opacity="0" result="BackgroundImageFix"/>
<feGaussianBlur in="BackgroundImageFix" stdDeviation="2"/>
<feComposite in2="SourceAlpha" operator="in" result="effect1_backgroundBlur_124_9472"/>
<feBlend mode="normal" in="SourceGraphic" in2="effect1_backgroundBlur_124_9472" result="shape"/>
</filter>
</defs>
</svg>
