<svg width="150" height="39" viewBox="0 0 150 39" fill="none" xmlns="http://www.w3.org/2000/svg">
<path d="M14.8045 38.6376C14.7764 38.6202 14.7455 38.5964 14.7129 38.5713C14.1868 37.9944 10.9332 34.3879 7.61803 29.7622C6.62366 28.2883 5.97796 27.1388 6.10195 26.8415C6.42628 26.0686 12.2058 25.6455 13.9857 26.3462C14.527 26.5589 14.5133 26.8405 14.5133 27.0045C14.5133 27.7121 14.4737 29.6107 14.4737 29.6107C14.4741 30.003 14.8346 30.3212 15.2784 30.3205C15.723 30.3205 16.0821 30.0011 16.0806 29.6078L16.0721 24.8769C16.0721 24.4662 15.5641 24.3637 15.4689 24.3477C14.5398 24.3427 12.6533 24.3377 10.6276 24.3377C6.15795 24.3377 5.15914 24.5 4.39981 24.0607C2.75456 23.1088 0.0644513 16.693 0.00171371 13.0833C-0.0875904 7.99077 3.32243 3.58199 8.12419 1.39754C10.1303 0.503765 12.3961 0 14.7892 0C22.3893 0 28.6481 5.07587 29.4809 11.6064C29.4816 11.6114 29.4816 11.6188 29.4831 11.6238C29.6359 13.2026 19.8021 13.538 17.8569 13.0787C17.5588 13.0081 17.4824 12.738 17.4824 12.6217C17.4801 11.4212 17.4711 8.04272 17.4711 8.04272C17.4697 7.65008 17.1092 7.33162 16.6653 7.33261C16.2222 7.33326 15.8617 7.65236 15.8617 8.04568L15.8785 14.2691C15.8926 14.6611 16.2641 14.7669 16.366 14.7846C17.4721 14.7849 20.059 14.7826 22.4683 14.7826C25.7249 14.7826 27.0926 15.1166 28.0029 15.7297C28.608 16.1381 28.8423 16.9198 28.6375 17.9357C26.8115 26.9734 15.2391 38.1708 14.8045 38.6376ZM46.1848 17.5445C49.1041 18.6516 50.9128 19.8799 50.9128 22.5759C50.9128 25.3301 48.5551 27.1091 44.9071 27.1091C41.951 27.1091 39.5781 25.9243 38.3963 23.8577L38.2051 23.5245L41.6807 21.7426L41.9085 22.0719C42.6911 23.2038 43.5659 23.6863 44.8352 23.6863C45.9292 23.6863 46.6641 23.2574 46.6641 22.6184C46.6641 21.9105 46.1321 21.6452 44.4876 21.0082L43.6519 20.691C41.4214 19.8498 39.3552 18.681 39.3552 15.8501C39.3552 13.3059 41.5591 11.5292 44.7149 11.5292C47.1058 11.5292 48.7444 12.3482 49.8723 14.1056L50.0815 14.432L46.714 16.3469L46.482 15.9794C45.919 15.0883 45.3887 14.9096 44.715 14.9096C44.0106 14.9096 43.5568 15.2532 43.5568 15.7864C43.5568 16.3989 43.8911 16.6677 45.3482 17.2263L46.1848 17.5445ZM70.7869 18.0658L73.2406 12.0119H77.452L71.2105 27.3589H70.2752L66.4892 20.1715C66.3131 19.8422 66.1316 19.4332 65.9752 19.0585C65.8151 19.4339 65.6291 19.8438 65.4527 20.1731L61.5188 27.3589H60.5897L54.2483 12.0119H58.7471L61.2277 18.0658C61.3861 18.4519 61.5483 18.9226 61.6903 19.3593C61.8588 18.9086 62.0615 18.4219 62.2733 18.0295L65.5313 11.8855H66.4327L69.7413 18.0301C69.9522 18.4221 70.1556 18.9092 70.3235 19.36C70.4662 18.9226 70.6297 18.4519 70.7869 18.0658ZM82.3632 26.9182V11.6983H86.6138V26.9182H82.3632ZM100.55 21.8046V18.4033H108.443V25.2246L108.28 25.3436C107.377 25.9995 104.983 27.1093 101.74 27.1093C96.2693 27.1093 92.4501 23.9017 92.4501 19.309C92.4501 14.8013 96.1354 11.5293 101.213 11.5293C104.006 11.5293 106.052 12.2257 107.469 13.6588L107.746 13.9388L104.848 16.4767L104.534 16.1899C103.725 15.4516 102.886 14.9943 101.213 14.9943C98.6122 14.9943 96.7954 16.7685 96.7954 19.309C96.7954 21.9553 98.7354 23.6658 101.74 23.6658C102.736 23.6658 103.774 23.514 104.48 23.2712V21.8048L100.55 21.8046ZM122.09 21.8046V18.4033H129.983V25.2246L129.82 25.3436C128.916 25.9995 126.523 27.1093 123.281 27.1093C117.81 27.1093 113.99 23.9017 113.99 19.309C113.99 14.8013 117.676 11.5293 122.752 11.5293C125.546 11.5293 127.593 12.2257 129.009 13.6588L129.287 13.9388L126.39 16.4767L126.075 16.1899C125.265 15.4516 124.426 14.9943 122.752 14.9943C120.152 14.9943 118.336 16.7685 118.336 19.309C118.336 21.9553 120.276 23.6658 123.281 23.6658C124.277 23.6658 125.314 23.514 126.02 23.2712V21.8048L122.09 21.8046ZM145.557 11.6984H150L143.902 21.8262V26.9183H139.629V22.0424L133.133 11.6984H137.873L140.875 16.5511C141.198 17.079 141.535 17.7768 141.79 18.3432C142.034 17.7814 142.356 17.0898 142.677 16.5557L145.557 11.6984Z" fill="#FC8019"/>
</svg>
